<?xml version="1.0" encoding="UTF-8"?>
<svg width="48px" height="48px" viewBox="0 0 48 48" version="1.1" xmlns="http://www.w3.org/2000/svg" xmlns:xlink="http://www.w3.org/1999/xlink">
    <!-- Generator: Sketch 52.3 (67297) - http://www.bohemiancoding.com/sketch -->
    <title>toast_icon_warning</title>
    <desc>Created with Sketch.</desc>
    <g id="Page-1" stroke="none" stroke-width="1" fill="none" fill-rule="evenodd">
        <g id="设计规范&amp;切片" transform="translate(-2652.000000, -2009.000000)">
            <g id="toast_icon_warning-copy" transform="translate(2652.000000, 2009.000000)">
                <rect id="Rectangle-3" x="0" y="0" width="48" height="48"></rect>
                <path d="M24,48 C10.745,48 0,37.255 0,24 C0,10.745 10.745,0 24,0 C37.255,0 48,10.745 48,24 C48,37.255 37.255,48 24,48 L24,48 Z M21.656,10.5 L22.359,27 L25.5,27 L26.344,10.5 L21.656,10.5 L21.656,10.5 Z M26.125,32.376 C25.533,31.795 24.818,31.504 23.981,31.504 C23.143,31.504 22.435,31.795 21.857,32.376 C21.279,32.959 20.989,33.664 20.989,34.494 C20.989,35.444 21.292,36.183 21.897,36.711 C22.502,37.24 23.21,37.504 24.021,37.504 C24.818,37.504 25.516,37.236 26.115,36.701 C26.713,36.167 27.012,35.431 27.012,34.494 C27.012,33.664 26.716,32.959 26.125,32.376 L26.125,32.376 Z" id="toast_icon_warning" fill="#CCCCCC"></path>
            </g>
        </g>
    </g>
</svg>