<?xml version="1.0" encoding="UTF-8"?>
<svg width="48px" height="48px" viewBox="0 0 48 48" version="1.1" xmlns="http://www.w3.org/2000/svg" xmlns:xlink="http://www.w3.org/1999/xlink">
    <!-- Generator: Sketch 52.3 (67297) - http://www.bohemiancoding.com/sketch -->
    <title>toast_icon_right</title>
    <desc>Created with Sketch.</desc>
    <g id="Page-1" stroke="none" stroke-width="1" fill="none" fill-rule="evenodd">
        <g id="设计规范&amp;切片" transform="translate(-2579.000000, -2009.000000)" fill="#CCCCCC">
            <g id="Group-6" transform="translate(2579.000000, 2009.000000)">
                <path d="M24.001,47.997 C10.745,47.997 1.9220181e-12,37.253 1.9220181e-12,23.999 C1.9220181e-12,10.744 10.745,-3.05533376e-13 24.001,-3.05533376e-13 C37.256,-3.05533376e-13 48.001,10.744 48.001,23.999 C48.001,37.253 37.256,47.997 24.001,47.997 L24.001,47.997 Z M34.97,14.706 L19.477,30.199 L12.539,23.261 L10.417,25.382 L19.524,34.489 L21.645,32.368 L21.598,32.32 L37.091,16.827 L34.97,14.706 L34.97,14.706 Z" id="toast_icon_right"></path>
            </g>
        </g>
    </g>
</svg>