<?xml version="1.0" encoding="utf-8"?>
<!-- Generator: Adobe Illustrator 23.0.4, SVG Export Plug-In . SVG Version: 6.00 Build 0)  -->
<svg version="1.1" id="图层_1" xmlns="http://www.w3.org/2000/svg" xmlns:xlink="http://www.w3.org/1999/xlink" x="0px" y="0px"
	 viewBox="0 0 48 48" style="enable-background:new 0 0 48 48;" xml:space="preserve">
<style type="text/css">
	.st0{fill-rule:evenodd;clip-rule:evenodd;fill:#C8C8CC;}
	.st1{fill-rule:evenodd;clip-rule:evenodd;fill:#C2C2C6;}
	.st2{fill-rule:evenodd;clip-rule:evenodd;fill:#CDCDD1;}
	.st3{fill-rule:evenodd;clip-rule:evenodd;fill:#BCBCC0;}
	.st4{fill-rule:evenodd;clip-rule:evenodd;fill:#D0D0D4;}
	.st5{fill-rule:evenodd;clip-rule:evenodd;fill:#B6B6B9;}
	.st6{fill-rule:evenodd;clip-rule:evenodd;fill:#89898C;}
	.st7{fill-rule:evenodd;clip-rule:evenodd;fill:#98989B;}
	.st8{fill-rule:evenodd;clip-rule:evenodd;fill:#AFAFB3;}
	.st9{fill-rule:evenodd;clip-rule:evenodd;fill:#A2A2A5;}
	.st10{fill-rule:evenodd;clip-rule:evenodd;fill:#9D9DA0;}
	.st11{fill-rule:evenodd;clip-rule:evenodd;fill:#A9A9AC;}
</style>
<title>loading1@2x</title>
<desc>Created with Sketch.</desc>
<g id="Group-7">
	<path id="Rectangle-8" class="st0" d="M24,0L24,0c-1.1,0-2,0.9-2,2v8c0,1.1,0.9,2,2,2l0,0c1.1,0,2-0.9,2-2V2C26,0.9,25.1,0,24,0z"
		/>
	<path id="Rectangle-8-Copy" class="st1" d="M12.3,3L12.3,3c-1,0.6-1.3,1.8-0.7,2.7l4,6.9c0.6,1,1.8,1.3,2.7,0.7l0,0
		c1-0.6,1.3-1.8,0.7-2.7l-4-6.9C14.4,2.8,13.2,2.4,12.3,3z"/>
	<path id="Rectangle-8-Copy-10" class="st2" d="M36.3,3L36.3,3c1,0.6,1.3,1.8,0.7,2.7l-4,6.9c-0.6,1-1.8,1.3-2.7,0.7h0
		c-1-0.6-1.3-1.8-0.7-2.7l4-6.9C34.1,2.8,35.3,2.4,36.3,3z"/>
	<path id="Rectangle-8-Copy-2" class="st3" d="M3.6,11.7L3.6,11.7c-0.6,1-0.2,2.2,0.7,2.7l6.9,4c1,0.6,2.2,0.2,2.7-0.7l0,0
		c0.6-1,0.2-2.2-0.7-2.7l-6.9-4C5.4,10.4,4.2,10.8,3.6,11.7z"/>
	<path id="Rectangle-8-Copy-11" class="st4" d="M45,11.7L45,11.7c0.6,1,0.2,2.2-0.7,2.7l-6.9,4c-1,0.6-2.2,0.2-2.7-0.7l0,0
		c-0.6-1-0.2-2.2,0.7-2.7l6.9-4C43.2,10.4,44.4,10.8,45,11.7z"/>
	<path id="Rectangle-8-Copy-3" class="st5" d="M0,24L0,24c0,1.1,0.9,2,2,2h8c1.1,0,2-0.9,2-2l0,0c0-1.1-0.9-2-2-2H2
		C0.9,22,0,22.9,0,24z"/>
	<path id="Rectangle-8-Copy-9" class="st6" d="M36,24L36,24c0,1.1,0.9,2,2,2h8c1.1,0,2-0.9,2-2l0,0c0-1.1-0.9-2-2-2h-8
		C36.9,22,36,22.9,36,24z"/>
	<path id="Rectangle-8-Copy-5" class="st7" d="M45,35.7L45,35.7c-0.6,1-1.8,1.3-2.7,0.7l-6.9-4c-1-0.6-1.3-1.8-0.7-2.7l0,0
		c0.6-1,1.8-1.3,2.7-0.7l6.9,4C45.2,33.6,45.6,34.8,45,35.7z"/>
	<path id="Rectangle-8-Copy-6" class="st8" d="M3.6,35.7L3.6,35.7c0.6,1,1.8,1.3,2.7,0.7l6.9-4c1-0.6,1.3-1.8,0.7-2.7l0,0
		c-0.6-1-1.8-1.3-2.7-0.7l-6.9,4C3.4,33.6,3.1,34.8,3.6,35.7z"/>
	<path id="Rectangle-8-Copy-7" class="st9" d="M24,48L24,48c1.1,0,2-0.9,2-2v-8c0-1.1-0.9-2-2-2l0,0c-1.1,0-2,0.9-2,2v8
		C22,47.1,22.9,48,24,48z"/>
	<path id="Rectangle-8-Copy-8" class="st10" d="M36.3,44.4L36.3,44.4c1-0.6,1.3-1.8,0.7-2.7l-4-6.9c-0.6-1-1.8-1.3-2.7-0.7h0
		c-1,0.6-1.3,1.8-0.7,2.7l4,6.9C34.1,44.6,35.3,44.9,36.3,44.4z"/>
	<path id="Rectangle-8-Copy-12" class="st11" d="M11.8,44.4L11.8,44.4c-1-0.6-1.3-1.8-0.7-2.7l4-6.9c0.6-1,1.8-1.3,2.7-0.7l0,0
		c1,0.6,1.3,1.8,0.7,2.7l-4,6.9C13.9,44.6,12.7,44.9,11.8,44.4z"/>
</g>
</svg>
